<svg width="141" height="43" viewBox="0 0 141 43" fill="none" xmlns="http://www.w3.org/2000/svg">
<path d="M21.3227 0.0791016C9.7247 0.0791016 0.322266 9.48129 0.322266 21.0792C0.322266 32.6777 9.7247 42.0791 21.3227 42.0791C32.9219 42.0791 42.3233 32.6777 42.3233 21.0792C42.3233 9.48204 32.9219 0.0801046 21.3224 0.0801046L21.3227 0.0791016ZM30.9533 30.3673C30.5771 30.9842 29.7696 31.1798 29.1528 30.8011C24.2221 27.7894 18.015 27.1073 10.705 28.7774C10.0006 28.9379 9.29839 28.4966 9.1379 27.7919C8.97665 27.0872 9.41625 26.3851 10.1224 26.2246C18.122 24.3969 24.9839 25.1839 30.5195 28.5668C31.1364 28.9454 31.332 29.7504 30.9533 30.3673ZM33.5237 24.6492C33.0497 25.4196 32.0416 25.6628 31.2718 25.1889C25.6269 21.7192 17.0222 20.7144 10.3454 22.7411C9.47945 23.0026 8.56489 22.5146 8.30208 21.6502C8.04127 20.7843 8.52953 19.8715 9.39394 19.6082C17.0207 17.2941 26.5021 18.415 32.9845 22.3985C33.7544 22.8725 33.9977 23.8806 33.5237 24.6495V24.6492ZM33.7444 18.6949C26.976 14.6748 15.8092 14.3051 9.34704 16.2664C8.30935 16.5811 7.21197 15.9953 6.8975 14.9576C6.58303 13.9194 7.16834 12.8228 8.20678 12.5073C15.6249 10.2554 27.9566 10.6905 35.7491 15.3165C36.6844 15.8704 36.9904 17.0759 36.4362 18.008C35.8845 18.9414 34.6757 19.2491 33.7454 18.6949H33.7444ZM57.4574 19.4653C53.8312 18.6006 53.1867 17.9937 53.1867 16.7186C53.1867 15.5139 54.3202 14.7031 56.0079 14.7031C57.6429 14.7031 59.2629 15.3187 60.9632 16.5861C61.0133 16.6245 61.0785 16.6398 61.1412 16.6298C61.2064 16.6203 61.2616 16.5854 61.2992 16.533L63.0696 14.0373C63.1424 13.9345 63.1223 13.7928 63.0245 13.7143C61.0008 12.0911 58.7238 11.3019 56.0606 11.3019C52.146 11.3019 49.4101 13.6514 49.4101 17.013C49.4101 20.6178 51.7699 21.8942 55.8474 22.8795C59.3156 23.6787 59.9024 24.3483 59.9024 25.545C59.9024 26.8716 58.7187 27.6966 56.8129 27.6966C54.6964 27.6966 52.9685 26.9819 51.0376 25.3118C50.99 25.2691 50.9248 25.2516 50.8646 25.2541C50.7994 25.2591 50.7417 25.2892 50.7016 25.3368L48.7155 27.6991C48.6327 27.7994 48.6427 27.9449 48.738 28.0301C50.9849 30.0363 53.7484 31.0945 56.7326 31.0945C60.9506 31.0945 63.6765 28.79 63.6765 25.2215C63.684 22.2105 61.881 20.5428 57.4649 19.4685L57.4574 19.4653ZM73.2209 15.8893C71.3928 15.8893 69.8931 16.6095 68.6543 18.0853V16.4242C68.6543 16.293 68.549 16.1862 68.4186 16.1862H65.1711C65.0407 16.1862 64.9354 16.293 64.9354 16.4242V34.8812C64.9354 35.0116 65.0407 35.1194 65.1711 35.1194H68.4186C68.549 35.1194 68.6543 35.0116 68.6543 34.8812V29.0558C69.8931 30.4425 71.3928 31.1221 73.2209 31.1221C76.6188 31.1221 80.0594 28.5066 80.0594 23.5064C80.0644 18.5053 76.6239 15.889 73.2234 15.889L73.2209 15.8893ZM76.2828 23.5064C76.2828 26.0515 74.7155 27.8295 72.4686 27.8295C70.2492 27.8295 68.5741 25.9713 68.5741 23.5064C68.5741 21.0414 70.2492 19.1836 72.4686 19.1836C74.6779 19.1834 76.2828 21.001 76.2828 23.5062V23.5064ZM88.8741 15.8893C84.4981 15.8893 81.07 19.2586 81.07 23.5609C81.07 27.817 84.4755 31.1497 88.8214 31.1497C93.2124 31.1497 96.6505 27.7919 96.6505 23.5064C96.6505 19.2356 93.235 15.8898 88.8741 15.8898V15.8893ZM88.8741 27.8546C86.5469 27.8546 84.7915 25.9838 84.7915 23.5052C84.7915 21.0153 86.4867 19.2085 88.8214 19.2085C91.1636 19.2085 92.929 21.0785 92.929 23.5596C92.929 26.049 91.2238 27.8546 88.8741 27.8546ZM105.994 16.1862H102.421V12.5334C102.421 12.4025 102.315 12.2957 102.185 12.2957H98.9375C98.8071 12.2957 98.6993 12.4025 98.6993 12.5334V16.1862H97.1395C97.0091 16.1862 96.9038 16.293 96.9038 16.4242V19.2145C96.9038 19.3454 97.0091 19.4525 97.1395 19.4525H98.6993V26.6734C98.6993 29.5899 100.151 31.0695 103.018 31.0695C104.181 31.0695 105.147 30.8287 106.057 30.3121C106.132 30.272 106.177 30.1918 106.177 30.1065V27.4483C106.177 27.3681 106.135 27.2903 106.064 27.2477C105.994 27.2026 105.906 27.2001 105.834 27.2377C105.209 27.5511 104.605 27.6966 103.928 27.6966C102.887 27.6966 102.421 27.2226 102.421 26.1644V19.4537H105.994C106.125 19.4537 106.23 19.3469 106.23 19.2157V16.4257C106.235 16.2945 106.13 16.1877 105.997 16.1877L105.994 16.1862ZM118.443 16.2005V15.7518C118.443 14.432 118.949 13.8435 120.083 13.8435C120.76 13.8435 121.304 13.9779 121.913 14.181C121.988 14.2046 122.066 14.1928 122.126 14.1479C122.189 14.103 122.224 14.031 122.224 13.9548V11.2189C122.224 11.1143 122.159 11.0218 122.056 10.9909C121.414 10.7996 120.592 10.6032 119.358 10.6032C116.361 10.6032 114.774 12.2919 114.774 15.485V16.1721H113.214C113.084 16.1721 112.976 16.279 112.976 16.4099V19.2145C112.976 19.3454 113.084 19.4525 113.214 19.4525H114.774V30.588C114.774 30.7209 114.882 30.8262 115.012 30.8262H118.257C118.39 30.8262 118.495 30.7209 118.495 30.588V19.4532H121.527L126.171 30.588C125.645 31.7566 125.126 31.9898 124.418 31.9898C123.847 31.9898 123.242 31.8193 122.628 31.4807C122.57 31.4506 122.5 31.4456 122.44 31.4632C122.377 31.4858 122.325 31.5309 122.299 31.5911L121.199 34.006C121.146 34.1214 121.191 34.2543 121.301 34.3145C122.45 34.9364 123.486 35.2022 124.767 35.2022C127.164 35.2022 128.491 34.0837 129.657 31.0795L135.289 16.5255C135.32 16.4522 135.309 16.3695 135.264 16.3045C135.222 16.2401 135.149 16.2012 135.071 16.2012H131.691C131.588 16.2012 131.498 16.2657 131.465 16.3607L128.002 26.2496L124.21 16.3542C124.175 16.2622 124.087 16.2012 123.99 16.2012H118.443V16.2005ZM111.225 16.1862H107.978C107.847 16.1862 107.74 16.293 107.74 16.4242V30.588C107.74 30.7209 107.847 30.8262 107.978 30.8262H111.225C111.356 30.8262 111.464 30.7209 111.464 30.588V16.4252C111.464 16.294 111.358 16.1872 111.225 16.1872V16.1862ZM109.62 9.73657C108.334 9.73657 107.291 10.7778 107.291 12.064C107.291 13.3509 108.334 14.3934 109.62 14.3934C110.907 14.3934 111.948 13.3509 111.948 12.064C111.948 10.778 110.904 9.73657 109.62 9.73657ZM138.063 20.7404C136.779 20.7404 135.778 19.7085 135.778 18.4554C135.778 17.2023 136.792 16.1586 138.076 16.1586C139.359 16.1586 140.36 17.1903 140.36 18.4424C140.36 19.6955 139.347 20.7404 138.063 20.7404ZM138.076 16.3858C136.904 16.3858 136.019 17.3161 136.019 18.4554C136.019 19.5942 136.899 20.512 138.063 20.512C139.234 20.512 140.119 19.5824 140.119 18.4424C140.119 17.3036 139.239 16.3858 138.076 16.3858ZM138.582 18.6773L139.229 19.5821H138.682L138.101 18.7521H137.602V19.5821H137.145V17.1837H138.213C138.773 17.1837 139.139 17.4689 139.139 17.9488C139.141 18.3421 138.913 18.5823 138.585 18.6773H138.582ZM138.196 17.5953H137.602V18.3538H138.196C138.492 18.3538 138.67 18.2086 138.67 17.9742C138.67 17.7274 138.492 17.5953 138.196 17.5953Z" fill="#1ED760"/>
</svg>
