<svg width="120" height="30" viewBox="0 0 120 30" fill="none" xmlns="http://www.w3.org/2000/svg">
<path d="M38.5308 11.8009C38.5308 9.66825 36.3981 7.39336 32.8436 7.39336C28.8626 7.39336 24.3128 10.3791 23.6019 16.3507C22.891 22.3223 26.5877 25.0237 30.4265 25.0237C34.2654 25.0237 36.1137 23.6019 38.1043 21.6114C36.3981 19.4787 34.1232 20.4739 33.6967 20.6161C33.2701 20.9005 32.5592 21.1848 31.4218 21.1848C30 21.1848 28.436 20.4739 28.436 17.7725C37.8199 16.7773 38.5308 13.9336 38.5308 11.8009ZM33.981 12.0853C33.981 12.7962 33.6967 13.9336 29.0047 14.5024C30 10.9479 31.8483 10.6635 32.7014 10.6635C33.5545 10.8057 33.981 11.3744 33.981 12.0853ZM18.1991 12.654C18.1991 12.654 16.2085 18.91 16.0663 19.4787C16.0663 18.91 14.5024 7.67772 14.5024 7.67772C11.09 7.67772 9.24171 10.0948 8.38863 12.654C8.38863 12.654 5.97156 18.91 5.82938 19.4787C5.6872 19.0521 5.40284 12.7962 5.40284 12.7962C5.11848 9.66825 2.27488 7.67772 0 7.67772L2.8436 24.7393C6.3981 24.7393 8.38863 22.3223 9.38389 19.763C9.38389 19.763 11.5166 14.218 11.6588 13.9336C11.6588 14.218 13.2227 24.7393 13.2227 24.7393C16.7773 24.7393 18.7678 22.4645 19.763 20.0474L24.7393 7.67772C21.0427 7.67772 19.1943 10.0948 18.1991 12.654ZM51.7536 7.25118C49.6208 7.25118 47.9147 8.38863 46.4929 10.237L47.6303 0C44.6445 0 42.3697 2.55924 41.8009 6.25592L39.5261 24.5972C41.2322 24.5972 42.9384 24.1706 43.9336 22.891C44.7867 24.0284 46.0663 24.8815 47.9147 24.8815C52.891 24.8815 56.3033 19.1943 56.3033 13.7915C56.4455 8.81517 54.0284 7.25118 51.7536 7.25118ZM51.1848 16.0663C50.6161 19.0521 49.0521 21.0427 47.346 21.0427C45.782 21.0427 45.0711 20.3318 45.0711 20.3318C45.3554 17.7725 45.6398 16.0663 46.2085 14.6445C46.7772 13.2227 48.1991 11.09 49.6208 11.09C51.0427 11.2322 51.7536 13.0806 51.1848 16.0663ZM68.8152 7.67772H65.4028V7.53554C65.6872 5.26066 66.1137 4.12322 67.9621 3.98104C69.0995 3.83886 69.6682 3.27014 69.8104 2.55924C69.9526 1.99052 70.237 0.14218 70.237 0.14218C63.2701 0.14218 61.1374 3.12796 60.5687 7.67772V7.8199H60.4265C59.2891 7.8199 58.0095 9.09952 57.8673 10.6635L57.7251 11.2322H60L58.0095 27.1564L57.4408 30C57.5829 30 57.5829 30 57.7251 30C60.9953 29.8578 62.9858 27.2986 63.5545 23.6019L65.1185 11.09H66.2559C67.2512 11.09 68.5308 10.0948 68.8152 8.24644V7.67772ZM86.7299 7.39336C82.7488 7.39336 79.0521 10.3791 77.9147 14.9289C76.7772 19.4787 78.4834 25.0237 84.3128 25.0237C90.1422 25.0237 93.5545 19.3365 93.5545 14.6445C93.4123 9.95261 90.2844 7.39336 86.7299 7.39336ZM88.2938 15.9242C88.1516 18.0569 87.1564 21.1848 84.5971 21.1848C82.0379 21.1848 82.4645 17.4882 82.6066 15.782C82.891 13.9336 83.8863 11.2322 86.1611 11.2322C88.2938 11.2322 88.5782 13.6493 88.2938 15.9242ZM113.175 12.654C113.175 12.654 111.185 18.91 111.043 19.4787C111.043 18.91 109.479 7.67772 109.479 7.67772C106.066 7.67772 104.218 10.0948 103.365 12.654C103.365 12.654 100.948 18.91 100.806 19.4787C100.806 19.0521 100.379 12.7962 100.379 12.7962C100.237 9.66825 97.2512 7.8199 94.9763 7.8199L97.8199 24.8815C101.374 24.8815 103.365 22.4645 104.36 19.9052C104.36 19.9052 106.493 14.3602 106.635 14.0758C106.635 14.3602 108.199 24.8815 108.199 24.8815C111.754 24.8815 113.744 22.6066 114.739 20.1896L119.431 7.67772C115.877 7.67772 114.028 10.0948 113.175 12.654ZM72.0853 0.14218L69.2417 23.4597L68.673 26.3033C68.8152 26.3033 68.8152 26.3033 68.9573 26.3033C72.0853 26.3033 74.3602 23.4597 74.6445 20.0474L76.3507 6.68246C76.7772 2.70142 74.218 0.14218 72.0853 0.14218Z" fill="white"/>
</svg>
